<?xml version="1.0" encoding="UTF-8" standalone="no"?>
<!-- Created with Inkscape (http://www.inkscape.org/) -->

<svg
   xmlns:dc="http://purl.org/dc/elements/1.1/"
   xmlns:cc="http://creativecommons.org/ns#"
   xmlns:rdf="http://www.w3.org/1999/02/22-rdf-syntax-ns#"
   xmlns:svg="http://www.w3.org/2000/svg"
   xmlns="http://www.w3.org/2000/svg"
   xmlns:sodipodi="http://sodipodi.sourceforge.net/DTD/sodipodi-0.dtd"
   xmlns:inkscape="http://www.inkscape.org/namespaces/inkscape"
   width="42.232567mm"
   height="18.545771mm"
   viewBox="0 0 42.232567 18.545771"
   version="1.1"
   id="svg2975"
   inkscape:version="0.92.3 (2405546, 2018-03-11)"
   sodipodi:docname="globuli_red.svg">
  <defs
     id="defs2969" />
  <sodipodi:namedview
     id="base"
     pagecolor="#ffffff"
     bordercolor="#666666"
     borderopacity="1.0"
     inkscape:pageopacity="0.0"
     inkscape:pageshadow="2"
     inkscape:zoom="1.979899"
     inkscape:cx="53.17386"
     inkscape:cy="62.231769"
     inkscape:document-units="mm"
     inkscape:current-layer="layer1"
     showgrid="false"
     inkscape:window-width="1366"
     inkscape:window-height="705"
     inkscape:window-x="-8"
     inkscape:window-y="-8"
     inkscape:window-maximized="1"
     inkscape:lockguides="true"
     fit-margin-top="0"
     fit-margin-left="0"
     fit-margin-right="0"
     fit-margin-bottom="0" />
  <metadata
     id="metadata2972">
    <rdf:RDF>
      <cc:Work
         rdf:about="">
        <dc:format>image/svg+xml</dc:format>
        <dc:type
           rdf:resource="http://purl.org/dc/dcmitype/StillImage" />
        <dc:title></dc:title>
      </cc:Work>
    </rdf:RDF>
  </metadata>
  <g
     inkscape:label="Ebene 1"
     inkscape:groupmode="layer"
     id="layer1"
     transform="translate(-106.77218,-134.31441)">
    <g
       id="g1621">
      <path
         sodipodi:nodetypes="cccccccccccaaaaaccccc"
         inkscape:connector-curvature="0"
         id="path2908-2-4"
         d="m 107.27195,134.81421 c 0.70918,0.81025 1.05264,1.87208 1.08469,2.90525 0.0302,0.97436 -0.89261,1.8238 -0.85163,2.79776 0.0438,1.04107 1.15437,1.86171 1.15807,2.9037 0.004,1.08004 -1.18374,1.93788 -1.17874,3.01791 0.005,1.06505 1.15802,1.90062 1.19063,2.96519 0.0314,1.02474 -0.77588,1.46012 -0.96946,2.91868 l 8.88577,-5.76708 c 1.80922,2.67359 6.22219,4.42977 11.13369,4.43073 4.7645,-0.002 9.07461,-1.656 10.9771,-4.21369 l 9.32952,5.58764 c -0.60137,-0.8141 -0.6615,-2.11238 -0.55084,-3.18367 0.0952,-0.92144 1.00083,-1.65761 1.02352,-2.58367 0.0235,-0.96045 -0.88928,-1.76846 -0.92904,-2.72837 -0.043,-1.03876 0.85247,-1.99019 0.75776,-3.02552 -0.0824,-0.90051 -1.09661,-1.56447 -1.12558,-2.46828 -0.0284,-0.88562 0.94576,-2.48429 0.94576,-2.48429 l -9.23509,5.59035 c -1.76821,-2.72039 -6.22197,-4.51875 -11.19311,-4.51962 -4.73401,0.002 -9.02184,1.63651 -10.94146,4.17029 z"
         style="opacity:1;fill:#00a600;fill-opacity:1;stroke:#000000;stroke-width:1;stroke-linecap:square;stroke-linejoin:round;stroke-miterlimit:4;stroke-dasharray:none;stroke-dashoffset:0;stroke-opacity:1;paint-order:normal" />
      <ellipse
         transform="matrix(0.95528266,0.29569415,-0.72792058,0.68566146,0,0)"
         ry="0.16534853"
         rx="3.0282319"
         cy="117.05721"
         cx="206.4928"
         id="path3531-0-4"
         style="opacity:1;fill:#00ffff;fill-opacity:1;stroke:#000000;stroke-width:0.63402033;stroke-linecap:square;stroke-linejoin:round;stroke-miterlimit:4;stroke-dasharray:none;stroke-dashoffset:0;stroke-opacity:1;paint-order:normal" />
      <ellipse
         transform="matrix(0.93676112,-0.34996943,-0.15691264,0.98761249,0,0)"
         ry="0.16534853"
         rx="3.0282319"
         cy="201.58466"
         cx="153.41716"
         id="path3531-1-1-1"
         style="opacity:1;fill:#00ffff;fill-opacity:1;stroke:#000000;stroke-width:0.63402033;stroke-linecap:square;stroke-linejoin:round;stroke-miterlimit:4;stroke-dasharray:none;stroke-dashoffset:0;stroke-opacity:1;paint-order:normal" />
      <path
         sodipodi:nodetypes="cccccc"
         inkscape:connector-curvature="0"
         id="rect3560-8-8"
         d="m 116.78351,141.12752 c 0.90805,-1.17841 2.3225,-2.27946 3.58591,-2.74714 1.07121,3.84714 0.86625,7.73607 -0.20044,10.89123 -1.67236,-0.49235 -2.61389,-1.51508 -3.57769,-2.71599 0.58756,-2.1512 0.49811,-3.8007 0.19224,-5.4281 z"
         style="opacity:1;fill:#00ff00;fill-opacity:1;stroke:#000000;stroke-width:1;stroke-linecap:square;stroke-linejoin:round;stroke-miterlimit:4;stroke-dasharray:none;stroke-dashoffset:0;stroke-opacity:1;paint-order:normal" />
      <path
         sodipodi:nodetypes="ccccc"
         inkscape:connector-curvature="0"
         id="rect3560-7-8-0"
         d="m 129.76012,137.14424 c 1.8775,4.70817 0.91658,13.65634 -1e-5,13.69757 -1.30392,0.32072 -3.27601,0.22863 -4.57994,0.0235 0.83116,-3.79125 1.3639,-7.69155 -0.075,-13.57982 0.89989,-0.22039 2.72726,-0.59713 4.65498,-0.14125 z"
         style="opacity:1;fill:#00ff00;fill-opacity:1;stroke:#000000;stroke-width:1;stroke-linecap:square;stroke-linejoin:round;stroke-miterlimit:4;stroke-dasharray:none;stroke-dashoffset:0;stroke-opacity:1;paint-order:normal" />
      <path
         sodipodi:nodetypes="cccccc"
         inkscape:connector-curvature="0"
         id="rect3560-2-08-3"
         d="m 138.70207,146.77266 c -0.8738,1.20403 -2.53491,2.20414 -3.78435,2.70795 0.53456,-2.41995 1.51292,-7.12134 -0.36461,-11.15614 1.68582,0.44406 3.18712,1.84411 4.18505,3.01681 0.68288,2.28065 0.34576,3.87475 -0.0361,5.43138 z"
         style="opacity:1;fill:#00ff00;fill-opacity:1;stroke:#000000;stroke-width:1;stroke-linecap:square;stroke-linejoin:round;stroke-miterlimit:4;stroke-dasharray:none;stroke-dashoffset:0;stroke-opacity:1;paint-order:normal" />
      <ellipse
         transform="matrix(0.95528266,0.29569415,-0.72792058,0.68566146,0,0)"
         ry="0.16534853"
         rx="3.0282319"
         cy="111.54903"
         cx="235.41025"
         id="path3531-0-3-7"
         style="opacity:1;fill:#00ffff;fill-opacity:1;stroke:#000000;stroke-width:0.63402033;stroke-linecap:square;stroke-linejoin:round;stroke-miterlimit:4;stroke-dasharray:none;stroke-dashoffset:0;stroke-opacity:1;paint-order:normal" />
      <ellipse
         transform="matrix(0.93676112,-0.34996943,-0.15691264,0.98761249,0,0)"
         ry="0.16534853"
         rx="3.0282319"
         cy="210.21461"
         cx="188.43037"
         id="path3531-1-1-2-4"
         style="opacity:1;fill:#00ffff;fill-opacity:1;stroke:#000000;stroke-width:0.63402033;stroke-linecap:square;stroke-linejoin:round;stroke-miterlimit:4;stroke-dasharray:none;stroke-dashoffset:0;stroke-opacity:1;paint-order:normal" />
    </g>
  </g>
</svg>
