<?xml version="1.0" encoding="UTF-8" standalone="no"?>
<!-- Created with Inkscape (http://www.inkscape.org/) -->

<svg
   xmlns:dc="http://purl.org/dc/elements/1.1/"
   xmlns:cc="http://creativecommons.org/ns#"
   xmlns:rdf="http://www.w3.org/1999/02/22-rdf-syntax-ns#"
   xmlns:svg="http://www.w3.org/2000/svg"
   xmlns="http://www.w3.org/2000/svg"
   xmlns:sodipodi="http://sodipodi.sourceforge.net/DTD/sodipodi-0.dtd"
   xmlns:inkscape="http://www.inkscape.org/namespaces/inkscape"
   id="svg1978"
   version="1.1"
   viewBox="0 0 97.977715 89.092598"
   height="89.092598mm"
   width="97.977715mm"
   inkscape:export-filename="C:\Users\Wanda_Baltzer\Documents\Game Jam 2.0\The-wreak-\TrueTurnTurnTurn\Globuli\globuli_negativ.png"
   inkscape:export-xdpi="96"
   inkscape:export-ydpi="96"
   inkscape:version="0.92.3 (2405546, 2018-03-11)"
   sodipodi:docname="globuli_negativ.svg">
  <sodipodi:namedview
     inkscape:window-maximized="1"
     inkscape:window-y="-8"
     inkscape:window-x="-8"
     inkscape:window-height="705"
     inkscape:window-width="1366"
     showguides="false"
     showgrid="false"
     inkscape:current-layer="layer1"
     inkscape:document-units="mm"
     inkscape:cy="214.95347"
     inkscape:cx="-170.29199"
     inkscape:zoom="0.7"
     inkscape:pageshadow="2"
     inkscape:pageopacity="0.0"
     borderopacity="1.0"
     bordercolor="#666666"
     pagecolor="#ffffff"
     id="base"
     fit-margin-top="0"
     fit-margin-left="0"
     fit-margin-right="0"
     fit-margin-bottom="0"
     inkscape:pagecheckerboard="true" />
  <defs
     id="defs1972">
    <inkscape:perspective
       id="perspective2525"
       inkscape:persp3d-origin="105 : 98.999995 : 1"
       inkscape:vp_z="210 : 148.49999 : 1"
       inkscape:vp_y="0 : 999.99995 : 0"
       inkscape:vp_x="0 : 148.49999 : 1"
       sodipodi:type="inkscape:persp3d" />
  </defs>
  <metadata
     id="metadata1975">
    <rdf:RDF>
      <cc:Work
         rdf:about="">
        <dc:format>image/svg+xml</dc:format>
        <dc:type
           rdf:resource="http://purl.org/dc/dcmitype/StillImage" />
        <dc:title></dc:title>
      </cc:Work>
    </rdf:RDF>
  </metadata>
  <g
     transform="translate(-58.409424,-106.54204)"
     id="layer1"
     inkscape:groupmode="layer"
     inkscape:label="Ebene 1">
    <g
       id="g6485">
      <path
         style="opacity:1;fill:#12ffff;fill-opacity:1;stroke:#ffffff;stroke-width:1.06500006;stroke-linecap:square;stroke-linejoin:round;stroke-miterlimit:4;stroke-dasharray:none;stroke-dashoffset:0;stroke-opacity:1;paint-order:normal"
         d="m 148.60185,171.38331 c 0,0 -15.00684,20.2576 -26.31438,23.43884 -4.66663,1.3129 -9.46542,-2.43199 -14.31058,-2.59179 -6.11998,-0.20184 -12.56096,4.3347 -18.2523,2.07558 -14.07078,-5.58525 -25.526264,-20.02722 -29.321686,-34.68248 -6.155743,-23.76915 12.81253,-35.38365 32.72749,-30.52834 4.92302,1.20024 7.500536,4.44711 11.639256,4.33593 4.18145,-0.11234 7.92063,-2.85324 11.50725,-5.00575 16.30361,-9.78461 55.76262,0.94693 32.32495,42.95801 z"
         id="path6432"
         inkscape:connector-curvature="0"
         sodipodi:nodetypes="caaassasc" />
      <path
         style="opacity:1;fill:#b4fbfb;fill-opacity:1;stroke:#ffffff;stroke-width:1.06500006;stroke-linecap:square;stroke-linejoin:round;stroke-miterlimit:4;stroke-dasharray:none;stroke-dashoffset:0;stroke-opacity:1;paint-order:normal"
         d="m 104.50238,110.98041 c -0.33671,-1.84034 5.37868,-1.8562 5.61266,0 1.50424,11.93318 -0.80139,21.91526 -0.26727,20.84702 -2.45845,2.38848 -4.63596,1.52974 -6.41447,1.33635 0.30173,1.20693 3.45329,-9.15223 1.06908,-22.18337 z"
         id="rect6449"
         inkscape:connector-curvature="0"
         sodipodi:nodetypes="ssccs" />
      <path
         style="opacity:1;fill:#ff7fff;fill-opacity:1;stroke:#ffffff;stroke-width:1.06500006;stroke-linecap:square;stroke-linejoin:round;stroke-miterlimit:4;stroke-dasharray:none;stroke-dashoffset:0;stroke-opacity:1;paint-order:normal"
         d="m 103.4333,133.16378 c 0,0 -13.638428,2.00274 -26.227513,-2.23999 -12.483482,-4.20714 -20.314351,-15.45735 -17.783351,-22.03795 1.157988,-1.15799 18.134527,-4.77264 28.098401,3.30907 10.317578,8.3686 15.912463,20.96887 15.912463,20.96887 z"
         id="path6452"
         inkscape:connector-curvature="0"
         sodipodi:nodetypes="cscsc" />
      <path
         style="fill:none;stroke:#ffffff;stroke-width:1.15123439;stroke-linecap:butt;stroke-linejoin:miter;stroke-miterlimit:4;stroke-dasharray:none;stroke-opacity:1;opacity:1"
         d="M 93.453673,127.23799 C 91.638141,124.89142 77.840085,113.94073 67.309992,113.15853"
         id="path6457"
         inkscape:connector-curvature="0" />
      <path
         style="opacity:1;fill:#000000;fill-opacity:1;stroke:#ffffff;stroke-width:0.62515968;stroke-linecap:square;stroke-linejoin:round;stroke-miterlimit:4;stroke-dasharray:none;stroke-dashoffset:0;stroke-opacity:1;paint-order:normal"
         d="m 136.44009,132.95939 c 6.37768,1.21678 9.10144,7.66711 9.10144,7.66711 0.39587,0.43839 -3.07508,5.1938 -5.14976,4.18878 0,0 -2.12278,-4.29388 -8.96873,-6.73341 3.08692,-1.82789 4.2551,-3.72217 5.01705,-5.12248 z"
         id="rect6477"
         inkscape:connector-curvature="0"
         sodipodi:nodetypes="ccccc" />
    </g>
  </g>
  <g
     transform="translate(-58.409424,-106.54204)"
     inkscape:label="Ebene 2"
     id="layer2"
     inkscape:groupmode="layer" />
</svg>
