<?xml version="1.0" encoding="UTF-8" standalone="no"?>
<!-- Created with Inkscape (http://www.inkscape.org/) -->

<svg
   xmlns:dc="http://purl.org/dc/elements/1.1/"
   xmlns:cc="http://creativecommons.org/ns#"
   xmlns:rdf="http://www.w3.org/1999/02/22-rdf-syntax-ns#"
   xmlns:svg="http://www.w3.org/2000/svg"
   xmlns="http://www.w3.org/2000/svg"
   xmlns:sodipodi="http://sodipodi.sourceforge.net/DTD/sodipodi-0.dtd"
   xmlns:inkscape="http://www.inkscape.org/namespaces/inkscape"
   width="55.524754mm"
   height="103.55842mm"
   viewBox="0 0 55.524754 103.55842"
   version="1.1"
   id="svg1028"
   inkscape:version="0.92.3 (2405546, 2018-03-11)"
   sodipodi:docname="globuli_orange.svg">
  <defs
     id="defs1022" />
  <sodipodi:namedview
     id="base"
     pagecolor="#ffffff"
     bordercolor="#666666"
     borderopacity="1.0"
     inkscape:pageopacity="0.0"
     inkscape:pageshadow="2"
     inkscape:zoom="0.49497475"
     inkscape:cx="-91.382401"
     inkscape:cy="336.62686"
     inkscape:document-units="mm"
     inkscape:current-layer="layer1"
     showgrid="false"
     fit-margin-top="0"
     fit-margin-left="0"
     fit-margin-right="0"
     fit-margin-bottom="0"
     inkscape:pagecheckerboard="true"
     inkscape:window-width="1366"
     inkscape:window-height="705"
     inkscape:window-x="-8"
     inkscape:window-y="-8"
     inkscape:window-maximized="1" />
  <metadata
     id="metadata1025">
    <rdf:RDF>
      <cc:Work
         rdf:about="">
        <dc:format>image/svg+xml</dc:format>
        <dc:type
           rdf:resource="http://purl.org/dc/dcmitype/StillImage" />
        <dc:title></dc:title>
      </cc:Work>
    </rdf:RDF>
  </metadata>
  <g
     inkscape:label="Ebene 1"
     inkscape:groupmode="layer"
     id="layer1"
     transform="translate(-81.01632,-88.563416)">
    <g
       id="g1970">
      <g
         id="g1947">
        <circle
           style="opacity:1;fill:#ffc300;fill-opacity:1;stroke:#000000;stroke-width:1;stroke-linecap:square;stroke-linejoin:round;stroke-miterlimit:4;stroke-dasharray:none;stroke-dashoffset:0;stroke-opacity:1;paint-order:normal"
           id="path1653"
           cx="122.91715"
           cy="-101.27126"
           r="27.261492"
           transform="rotate(86.405301)" />
        <path
           sodipodi:type="spiral"
           style="fill:none;fill-rule:evenodd;stroke:#000000;stroke-width:1.05151892;stroke-miterlimit:4;stroke-dasharray:none"
           id="path1655"
           sodipodi:cx="107.70962"
           sodipodi:cy="117.39487"
           sodipodi:expansion="1"
           sodipodi:revolution="3"
           sodipodi:radius="28.930616"
           sodipodi:argument="-18.064157"
           sodipodi:t0="0"
           d="m 107.70962,117.39487 c 1.02568,1.02568 -0.87657,1.88863 -1.70476,1.70475 -2.24433,-0.49831 -2.60513,-3.37303 -1.70475,-5.11426 1.61057,-3.11465 5.79286,-3.47953 8.52377,-1.70475 4.00772,2.60455 4.37984,8.24551 1.70475,11.93327 -3.56547,4.91521 -10.70981,5.29119 -15.342779,1.70475 -5.830118,-4.51317 -6.208258,-13.17967 -1.704748,-18.75228 5.454357,-6.74919 15.652647,-7.12863 22.161787,-1.70475 7.67079,6.39186 8.05108,18.12759 1.70475,25.57129 -7.3271,8.59406 -20.60383,8.97492 -28.980803,1.70475 -9.518453,-8.26083 -9.899721,-23.08098 -1.704744,-32.39031 9.193525,-10.443659 25.558797,-10.825226 35.799807,-1.70474 11.36948,10.12547 11.75127,28.03711 1.70475,39.20932"
           transform="matrix(-0.49443892,0.79424376,-0.78721803,-0.50402155,253.79878,89.102063)" />
        <path
           style="opacity:1;fill:#ff6400;fill-opacity:1;stroke:#000000;stroke-width:1;stroke-linecap:square;stroke-linejoin:round;stroke-miterlimit:4;stroke-dasharray:none;stroke-dashoffset:0;stroke-opacity:1;paint-order:normal"
           d="M 100.49335,142.28974 C 93.182017,140.05972 85.073767,131.676 85.091936,129.48885 c 4.111086,3.69408 7.337267,8.34538 14.031657,10.12282 -0.650991,0 0.586611,1.89234 1.369757,2.67807 z"
           id="path1657"
           inkscape:connector-curvature="0"
           sodipodi:nodetypes="cccc" />
        <path
           style="opacity:1;fill:#ff6400;fill-opacity:1;stroke:#000000;stroke-width:1;stroke-linecap:square;stroke-linejoin:round;stroke-miterlimit:4;stroke-dasharray:none;stroke-dashoffset:0;stroke-opacity:1;paint-order:normal"
           d="m 110.1997,143.39326 c -2.03226,0.15346 -7.7647,-2.89522 -6.35342,-2.78422 8.44342,0.66409 13.96639,-2.19919 13.96639,-2.19919 0,0.2357 4.29122,0.62011 6.42795,0.35264 -2.35037,2.23022 -12.09174,4.87979 -14.04092,4.63077 z"
           id="path1657-4-4"
           inkscape:connector-curvature="0"
           sodipodi:nodetypes="csccc" />
        <path
           style="opacity:1;fill:#ff6400;fill-opacity:1;stroke:#000000;stroke-width:1;stroke-linecap:square;stroke-linejoin:round;stroke-miterlimit:4;stroke-dasharray:none;stroke-dashoffset:0;stroke-opacity:1;paint-order:normal"
           d="m 131.94154,130.60515 c -2.92638,3.72501 -8.57972,3.68498 -8.52874,3.43006 0.17529,0.0828 6.08925,-7.55309 6.53346,-9.99972 3.64022,-2.42765 4.55804,-4.95338 5.96022,-7.38914 0.36511,0.1217 0.0546,9.07412 -3.96494,13.9588 z"
           id="path1657-4-4-9-3"
           inkscape:connector-curvature="0"
           sodipodi:nodetypes="ccccc" />
        <path
           style="opacity:1;fill:#ff6400;fill-opacity:1;stroke:#000000;stroke-width:1;stroke-linecap:square;stroke-linejoin:round;stroke-miterlimit:4;stroke-dasharray:none;stroke-dashoffset:0;stroke-opacity:1;paint-order:normal"
           d="m 134.58287,108.01116 c -0.41559,5.82769 -3.99378,8.71825 -3.69022,8.90039 0.50055,-0.83425 -1.43053,-9.42879 -2.76644,-11.15297 1.82577,-4.06941 0.20722,-8.513573 0.20722,-8.513573 3.43462,3.400533 6.13618,8.768913 6.24944,10.766153 z"
           id="path1657-4-4-9-3-9"
           inkscape:connector-curvature="0"
           sodipodi:nodetypes="ccccc" />
        <path
           style="opacity:1;fill:#ff6400;fill-opacity:1;stroke:#000000;stroke-width:1;stroke-linecap:square;stroke-linejoin:round;stroke-miterlimit:4;stroke-dasharray:none;stroke-dashoffset:0;stroke-opacity:1;paint-order:normal"
           d="m 123.06083,93.153079 c 2.50214,3.824251 0.59171,6.952081 0.91608,7.195701 -1.63298,-1.342972 -6.67614,-3.962909 -9.87384,-5.010582 1.64533,-1.51542 -2.18866,-6.126032 -2.18866,-6.126032 3.25729,0.169965 9.28743,2.245117 11.14642,3.940913 z"
           id="path1657-4-4-9-3-9-6-8"
           inkscape:connector-curvature="0"
           sodipodi:nodetypes="ccccc" />
        <path
           style="opacity:1;fill:#ff6400;fill-opacity:1;stroke:#000000;stroke-width:1;stroke-linecap:square;stroke-linejoin:round;stroke-miterlimit:4;stroke-dasharray:none;stroke-dashoffset:0;stroke-opacity:1;paint-order:normal"
           d="m 103.03893,89.788651 c 5.3046,0.661194 5.32036,4.86738 5.32333,4.870165 -2.09757,0.26533 -5.94981,1.073208 -8.906894,2.678974 -0.286898,0.35697 -0.154375,-3.231864 -6.818841,-2.922038 3.887406,-3.027107 7.488025,-4.134999 10.402405,-4.627101 z"
           id="path1657-4-4-9-3-9-6-8-9"
           inkscape:connector-curvature="0"
           sodipodi:nodetypes="ccccc" />
        <path
           style="opacity:1;fill:#ff6400;fill-opacity:1;stroke:#000000;stroke-width:1;stroke-linecap:square;stroke-linejoin:round;stroke-miterlimit:4;stroke-dasharray:none;stroke-dashoffset:0;stroke-opacity:1;paint-order:normal"
           d="m 86.388822,101.30391 c 6.500432,-4.577401 9.234126,-0.97539 8.911468,-0.685 -1.739598,1.41847 -4.413816,6.30303 -5.168122,9.61659 -2.843587,-1.45607 -4.979092,-1.14407 -8.360583,2.29518 0.533347,-2.90553 1.699742,-7.9728 4.617237,-11.22677 z"
           id="path1657-4-4-9-3-9-6-8-9-4"
           inkscape:connector-curvature="0"
           sodipodi:nodetypes="ccccc" />
        <path
           style="opacity:1;fill:#ff6400;fill-opacity:1;stroke:#000000;stroke-width:1;stroke-linecap:square;stroke-linejoin:round;stroke-miterlimit:4;stroke-dasharray:none;stroke-dashoffset:0;stroke-opacity:1;paint-order:normal"
           d="m 81.908694,121.41729 c 1.55932,-3.91479 4.186551,-6.09422 7.761581,-6.73348 0.0063,2.25138 1.382842,7.21076 3.889843,10.40026 -2.86367,1.58187 -4.700381,6.41706 -1.439817,10.92373 -6.702972,-4.63131 -8.433197,-8.79684 -10.211607,-14.59051 z"
           id="path1657-4-4-9-3-9-6-8-9-4-7"
           inkscape:connector-curvature="0"
           sodipodi:nodetypes="ccccc" />
        <path
           style="opacity:1;fill:#ff6400;fill-opacity:1;stroke:#000000;stroke-width:1;stroke-linecap:square;stroke-linejoin:round;stroke-miterlimit:4;stroke-dasharray:none;stroke-dashoffset:0;stroke-opacity:1;paint-order:normal"
           d="m 100.46758,139.83298 c -4.203801,-4.06037 -3.429804,-11.07588 -3.429804,-11.07588 1.953633,0.95526 6.253624,4.21263 12.516634,2.71884 0.28675,3.25894 3.95317,7.15477 9.39416,5.99847 0,0 -8.35366,4.73711 -18.48099,2.35857 z"
           id="path1657-4-4-9-3-9-6-8-9-4-7-8"
           inkscape:connector-curvature="0"
           sodipodi:nodetypes="ccccc" />
        <path
           style="opacity:1;fill:#ff6400;fill-opacity:1;stroke:#000000;stroke-width:1;stroke-linecap:square;stroke-linejoin:round;stroke-miterlimit:4;stroke-dasharray:none;stroke-dashoffset:0;stroke-opacity:1;paint-order:normal"
           d="m 125.85222,130.27786 c -6.23464,4.34117 -11.48192,-0.3783 -11.47462,-0.3929 1.48769,-1.51096 5.35873,-3.858 7.21617,-9.95279 3.14497,0.90119 7.71864,-2.44692 8.59073,-7.94063 0.0849,0.16966 2.76391,12.17184 -4.33228,18.28632 z"
           id="path1657-4-4-9-3-9-6-8-9-4-7-8-2"
           inkscape:connector-curvature="0"
           sodipodi:nodetypes="ccccc" />
        <path
           style="opacity:1;fill:#ff6400;fill-opacity:1;stroke:#000000;stroke-width:1;stroke-linecap:square;stroke-linejoin:round;stroke-miterlimit:4;stroke-dasharray:none;stroke-dashoffset:0;stroke-opacity:1;paint-order:normal"
           d="m 126.28201,103.56133 c 1.10442,7.51644 -4.60964,10.48565 -4.61945,10.47261 -0.42269,-2.2784 -1.7034,-6.83441 -7.99491,-9.48412 2.2094,-2.4128 1.59167,-6.368808 -2.93625,-9.599808 10.01267,1.488667 13.39492,5.498428 15.55061,8.611318 z"
           id="path1657-4-4-9-3-9-6-8-9-4-7-8-2-1"
           inkscape:connector-curvature="0"
           sodipodi:nodetypes="ccccc" />
        <path
           style="opacity:1;fill:#ff6400;fill-opacity:1;stroke:#000000;stroke-width:1;stroke-linecap:square;stroke-linejoin:round;stroke-miterlimit:4;stroke-dasharray:none;stroke-dashoffset:0;stroke-opacity:1;paint-order:normal"
           d="m 99.455366,97.33779 c 7.549854,0.846369 9.343824,6.08879 9.328704,6.09496 -3.28914,0.44547 -7.97375,3.233 -9.506685,7.30012 -1.770527,-2.75107 -4.867559,-4.05307 -9.145217,-0.49737 1.84801,-7.29108 5.49091,-10.319291 9.323198,-12.89771 z"
           id="path1657-4-4-9-3-9-6-8-9-4-7-8-2-1-0"
           inkscape:connector-curvature="0"
           sodipodi:nodetypes="ccccc" />
        <path
           style="opacity:1;fill:#ff6400;fill-opacity:1;stroke:#000000;stroke-width:1;stroke-linecap:square;stroke-linejoin:round;stroke-miterlimit:4;stroke-dasharray:none;stroke-dashoffset:0;stroke-opacity:1;paint-order:normal"
           d="m 91.001749,119.78251 c 2.213563,-6.8343 7.732363,-5.67529 7.732942,-5.65897 -0.742008,3.72792 5.353229,9.34875 5.353229,8.12832 -1.74027,2.25003 -1.52753,4.17556 0.18767,9.31894 -7.601724,0.0786 -13.717328,-10.00246 -13.273841,-11.78829 z"
           id="path1657-4-4-9-3-9-6-8-9-4-7-8-2-1-0-3"
           inkscape:connector-curvature="0"
           sodipodi:nodetypes="ccccc" />
        <path
           style="opacity:1;fill:#ff6400;fill-opacity:1;stroke:#000000;stroke-width:1;stroke-linecap:square;stroke-linejoin:round;stroke-miterlimit:4;stroke-dasharray:none;stroke-dashoffset:0;stroke-opacity:1;paint-order:normal"
           d="m 114.3776,129.88496 c -7.0542,-1.35864 -6.43105,-7.24777 -6.43105,-7.24777 4.15773,-1.25871 5.66862,-4.782 5.27225,-5.57473 0.36321,0.27658 5.70146,-1.3739 7.48832,-6.07323 5.37664,9.76252 -5.76162,19.41825 -6.32952,18.89573 z"
           id="path1657-4-4-9-3-9-6-8-9-4-7-8-2-1-0-3-2"
           inkscape:connector-curvature="0"
           sodipodi:nodetypes="ccccc" />
        <path
           style="opacity:1;fill:#ff6400;fill-opacity:1;stroke:#000000;stroke-width:1;stroke-linecap:square;stroke-linejoin:round;stroke-miterlimit:4;stroke-dasharray:none;stroke-dashoffset:0;stroke-opacity:1;paint-order:normal"
           d="m 113.66765,104.54982 c 3.84543,6.06797 -2.05762,8.88729 -2.05762,8.88729 0.25927,-0.34569 -2.40755,-1.28837 -2.65776,-0.93798 0,0 -3.76882,-4.71143 -8.961334,-3.3347 3.092484,-7.11393 10.775774,-6.20966 13.676714,-4.61461 z"
           id="path1657-4-4-9-3-9-6-8-9-4-7-8-2-1-0-3-4"
           inkscape:connector-curvature="0"
           sodipodi:nodetypes="ccccc" />
        <path
           style="opacity:1;fill:#ff6400;fill-opacity:1;stroke:#000000;stroke-width:1;stroke-linecap:square;stroke-linejoin:round;stroke-miterlimit:4;stroke-dasharray:none;stroke-dashoffset:0;stroke-opacity:1;paint-order:normal"
           d="m 100.45173,118.87705 c -0.0936,-7.18324 6.61174,-5.4204 6.61174,-5.4204 -0.10363,0.73201 0.2905,0.92472 0.7193,1.82848 0,0 -1.01459,3.41149 4.12893,4.96122 -3.81999,3.3904 -7.63998,3.77546 -11.45997,-1.3693 z"
           id="path1657-4-4-9-3-9-6-8-9-4-7-8-2-1-0-3-4-8"
           inkscape:connector-curvature="0"
           sodipodi:nodetypes="ccccc" />
        <rect
           style="opacity:1;fill:#ff6400;fill-opacity:1;stroke:#000000;stroke-width:0.80112231;stroke-linecap:square;stroke-linejoin:round;stroke-miterlimit:4;stroke-dasharray:none;stroke-dashoffset:0;stroke-opacity:1;paint-order:normal"
           id="rect1921"
           width="0.75438583"
           height="0.30385962"
           x="107.80137"
           y="114.74662" />
        <rect
           style="opacity:1;fill:#ffffff;fill-opacity:1;stroke:#000000;stroke-width:0.96199453;stroke-linecap:square;stroke-linejoin:round;stroke-miterlimit:4;stroke-dasharray:none;stroke-dashoffset:0;stroke-opacity:1;paint-order:normal"
           id="rect1925"
           width="4.4523392"
           height="48.266571"
           x="105.55246"
           y="143.37427" />
      </g>
    </g>
  </g>
</svg>
